# xmcd
#
# Track frame offsets:
#	150
#	18182
#	34347
#	47988
#	61563
#	82432
#	98596
#	120809
#	140506
#	171655
#	191635
#	208459
#	217444
#	236812
#	247554
#
# Disc length: 3498 seconds
# Revision: 0
# Processed by: cddbd v1.5.2PL0 Copyright (c) Steve Scherf et al.
# Submitted via: dBpowerAMP V12.0
#
DISCID=dd0da80f
DTITLE=Various Artist - Notodden - Mississippi
DYEAR=2016
DGENRE=Blues
TTITLE0=Lazy Lester - Bloodstains On The Wall
TTITLE1=David "Honeyboy" Edwards - Catfish Blues
TTITLE2=Pinetop Perkins - Down In Mississippi
TTITLE3=Amund Maarud - Let's Get High
TTITLE4=Rita Engedalen - Turtle Blues
TTITLE5=Lazy Lester - I'm So Tired
TTITLE6=Snooky Pryor - How'd You Learn To Shake It Like That
TTITLE7=Pinetop Perkins - How Long
TTITLE8=Spoonful of Blues with Pinetop Perkins - Three Forks Store
TTITLE9=Lazy Lester - Kokomo Blues
TTITLE10=David "Honeyboy" Edwards - I'm The Man And I Always Wear The Pants
TTITLE11=Snooky Pryor - Juke Joint Shuffle
TTITLE12=Jostein Forsberg - A Woman
TTITLE13=Mel Brown and Rita Engedalen - Worries and Trouble
TTITLE14=David "Honeyboy" Edwards - Blues And Trouble
EXTD=
EXTT0=
EXTT1=
EXTT2=
EXTT3=
EXTT4=
EXTT5=
EXTT6=
EXTT7=
EXTT8=
EXTT9=
EXTT10=
EXTT11=
EXTT12=
EXTT13=
EXTT14=
PLAYORDER=
